<svg width="1773" height="1107" xmlns="http://www.w3.org/2000/svg" xmlns:xlink="http://www.w3.org/1999/xlink" xml:space="preserve" overflow="hidden"><g transform="translate(-1405 -231)"><rect x="1409.5" y="233.5" width="1766" height="904" stroke="#172C51" stroke-width="4.58333" stroke-miterlimit="8" fill="#C5E0B4"/><text font-family="Yu Gothic,Yu Gothic_MSFontService,sans-serif" font-weight="400" font-size="83" transform="matrix(1 0 0 1 1894.37 1097)">basic_stream_socket</text><rect x="1850.5" y="458.5" width="882" height="449" stroke="#172C51" stroke-width="4.58333" stroke-miterlimit="8" fill="#F8CBAD"/><text font-family="Yu Gothic,Yu Gothic_MSFontService,sans-serif" font-weight="400" font-size="83" transform="matrix(1 0 0 1 2082.62 867)">ssl</text><text font-family="Yu Gothic,Yu Gothic_MSFontService,sans-serif" font-weight="400" font-size="83" transform="matrix(1 0 0 1 2188.04 867)">::stream</text><rect x="1409.5" y="233.5" width="882" height="449" stroke="#172C51" stroke-width="4.58333" stroke-miterlimit="8" fill="#FFE699"/><text font-family="Yu Gothic,Yu Gothic_MSFontService,sans-serif" font-weight="400" font-size="83" transform="matrix(1 0 0 1 1645.99 643)">websocket</text><rect x="1409.5" y="233.5" width="1766" height="225" stroke="#172C51" stroke-width="4.58333" stroke-miterlimit="8" fill="#9DC3E6"/><text font-family="Yu Gothic,Yu Gothic_MSFontService,sans-serif" font-weight="400" font-size="83" transform="matrix(1 0 0 1 2073.41 372)">async_mqtt</text><path d="M1850 713 1850 1327.19" stroke="#4472C4" stroke-width="2.29167" stroke-miterlimit="8" stroke-dasharray="9.16667 6.875" fill="none" fill-rule="evenodd"/><path d="M2291 685 2291 1336.08" stroke="#4472C4" stroke-width="2.29167" stroke-miterlimit="8" stroke-dasharray="9.16667 6.875" fill="none" fill-rule="evenodd"/><path d="M2732 685 2732 1336.08" stroke="#4472C4" stroke-width="2.29167" stroke-miterlimit="8" stroke-dasharray="9.16667 6.875" fill="none" fill-rule="evenodd"/><path d="M3171 233 3171 1336.1" stroke="#4472C4" stroke-width="2.29167" stroke-miterlimit="8" stroke-dasharray="9.16667 6.875" fill="none" fill-rule="evenodd"/><path d="M1406 713 1406 1327.19" stroke="#4472C4" stroke-width="2.29167" stroke-miterlimit="8" stroke-dasharray="9.16667 6.875" fill="none" fill-rule="evenodd"/><text font-family="Yu Gothic,Yu Gothic_MSFontService,sans-serif" font-weight="400" font-size="83" transform="matrix(1 0 0 1 2863.66 1263)">mqtt</text><text font-family="Yu Gothic,Yu Gothic_MSFontService,sans-serif" font-weight="400" font-size="83" transform="matrix(1 0 0 1 2444.59 1263)">mqtts</text><text font-family="Yu Gothic,Yu Gothic_MSFontService,sans-serif" font-weight="400" font-size="83" transform="matrix(1 0 0 1 1992.24 1263)">wss</text><text font-family="Yu Gothic,Yu Gothic_MSFontService,sans-serif" font-weight="400" font-size="83" transform="matrix(1 0 0 1 1574.95 1263)">ws</text></g></svg>