<svg width="4223" height="1974" xmlns="http://www.w3.org/2000/svg" xmlns:xlink="http://www.w3.org/1999/xlink" xml:space="preserve" overflow="hidden"><g transform="translate(-8 -379)"><rect x="25.4999" y="388.5" width="358" height="133" stroke="#000000" stroke-width="3.4375" stroke-linejoin="round" stroke-miterlimit="10" fill="none"/><text font-family="MS Gothic,MS Gothic_MSFontService,sans-serif" font-weight="400" font-size="83" transform="matrix(1 0 0 1 58.2083 489)">client1</text><path d="M0 0 0.357283 1825.63" stroke="#000000" stroke-width="2.29167" stroke-miterlimit="8" fill="none" fill-rule="evenodd" transform="matrix(-1 0 0 1 204.357 521)"/><rect x="1963.5" y="388.5" width="317" height="133" stroke="#000000" stroke-width="3.4375" stroke-linejoin="round" stroke-miterlimit="10" fill="none"/><text font-family="MS Gothic,MS Gothic_MSFontService,sans-serif" font-weight="400" font-size="83" transform="matrix(1 0 0 1 1995.99 489)">broker</text><path d="M2121 521 2121 2346.63" stroke="#000000" stroke-width="2.29167" stroke-miterlimit="8" fill="none" fill-rule="evenodd"/><path d="M204 804.854 2118.97 804.855 2118.97 807.146 204 807.146ZM2078.26 782.082 2121.31 806 2078.26 829.919C2077.7 830.226 2077.01 830.027 2076.7 829.474 2076.39 828.92 2076.59 828.223 2077.14 827.916L2118.39 804.999 2118.39 807.002 2077.14 784.085C2076.59 783.778 2076.39 783.081 2076.7 782.527 2077.01 781.974 2077.7 781.775 2078.26 782.082Z"/><text font-family="MS Gothic,MS Gothic_MSFontService,sans-serif" font-weight="400" font-size="83" transform="matrix(1 0 0 1 319.231 785)">CONNECT RequestResponseInformation:1</text><rect x="3859.5" y="388.5" width="358" height="133" stroke="#000000" stroke-width="3.4375" stroke-linejoin="round" stroke-miterlimit="10" fill="none"/><text font-family="MS Gothic,MS Gothic_MSFontService,sans-serif" font-weight="400" font-size="83" transform="matrix(1 0 0 1 3892.12 489)">client2</text><path d="M4038 521 4038 2346.63" stroke="#000000" stroke-width="2.29167" stroke-miterlimit="8" fill="none" fill-rule="evenodd"/><path d="M2.15678e-07-1.14583 1914.97-1.14547 1914.97 1.14619-2.15678e-07 1.14583ZM1874.26-23.918 1917.31 0.00036081 1874.26 23.9187C1873.7 24.226 1873.01 24.0267 1872.7 23.4735 1872.39 22.9203 1872.59 22.2227 1873.15 21.9154L1914.4-1.00128 1914.4 1.002 1873.15-21.9147C1872.59-22.222 1872.39-22.9196 1872.7-23.4728 1873.01-24.026 1873.7-24.2253 1874.26-23.918Z" transform="matrix(-1 0 0 1 2121.31 980)"/><text font-family="MS Gothic,MS Gothic_MSFontService,sans-serif" font-weight="400" font-size="83" transform="matrix(1 0 0 1 319.231 959)">CONNACK </text><text font-family="MS Gothic,MS Gothic_MSFontService,sans-serif" font-weight="400" font-size="83" transform="matrix(1 0 0 1 319.231 1058)">ResponseInformation:</text><text fill="#0000FF" font-family="MS Gothic,MS Gothic_MSFontService,sans-serif" font-weight="400" font-size="83" transform="matrix(1 0 0 1 1144.23 1058)">BGTFC1</text><path d="M2140.5 802.5 3859.5 802.5 3859.5 945.833 3830.83 974.5 2140.5 974.5Z" fill="#FFE699" fill-rule="evenodd"/><path d="M3830.83 974.5 3836.57 951.567 3859.5 945.833Z" fill="#CDB97B" fill-rule="evenodd"/><path d="M3830.83 974.5 3836.57 951.567 3859.5 945.833 3830.83 974.5 2140.5 974.5 2140.5 802.5 3859.5 802.5 3859.5 945.833" stroke="#172C51" stroke-width="4.58333" stroke-miterlimit="8" fill="none" fill-rule="evenodd"/><text fill="#0000FF" font-family="MS Gothic,MS Gothic_MSFontService,sans-serif" font-weight="400" font-size="64" transform="matrix(1 0 0 1 2245.75 895)">BGTFC1</text><text font-family="MS Gothic,MS Gothic_MSFontService,sans-serif" font-weight="400" font-size="64" transform="matrix(1 0 0 1 2470.33 895)">means Broker Generated Topic For Client1</text><path d="M204 1243.85 2118.97 1243.85 2118.97 1246.15 204 1246.15ZM2078.26 1221.08 2121.31 1245 2078.26 1268.92C2077.7 1269.23 2077.01 1269.03 2076.7 1268.47 2076.39 1267.92 2076.59 1267.22 2077.14 1266.92L2118.39 1244 2118.39 1246 2077.14 1223.09C2076.59 1222.78 2076.39 1222.08 2076.7 1221.53 2077.01 1220.97 2077.7 1220.77 2078.26 1221.08Z"/><text font-family="MS Gothic,MS Gothic_MSFontService,sans-serif" font-weight="400" font-size="83" transform="matrix(1 0 0 1 319.231 1224)">SUBSCRIBE TopicFilter:</text><text fill="#0000FF" font-family="MS Gothic,MS Gothic_MSFontService,sans-serif" font-weight="400" font-size="83" transform="matrix(1 0 0 1 1226.73 1224)">BGTFC1</text><path d="M2.15678e-07-1.14583 1914.97-1.14547 1914.97 1.14619-2.15678e-07 1.14583ZM1874.26-23.918 1917.31 0.00036081 1874.26 23.9187C1873.7 24.226 1873.01 24.0267 1872.7 23.4735 1872.39 22.9203 1872.59 22.2227 1873.15 21.9154L1914.4-1.00128 1914.4 1.002 1873.15-21.9147C1872.59-22.222 1872.39-22.9196 1872.7-23.4728 1873.01-24.026 1873.7-24.2253 1874.26-23.918Z" transform="matrix(-1 0 0 1 2121.31 1399)"/><text font-family="MS Gothic,MS Gothic_MSFontService,sans-serif" font-weight="400" font-size="83" transform="matrix(1 0 0 1 319.231 1380)">SUBACK</text><path d="M2.15678e-07-1.14583 1914.97-1.14547 1914.97 1.14619-2.15678e-07 1.14583ZM1874.26-23.918 1917.31 0.00036081 1874.26 23.9187C1873.7 24.226 1873.01 24.0267 1872.7 23.4735 1872.39 22.9203 1872.59 22.2227 1873.15 21.9154L1914.4-1.00128 1914.4 1.002 1873.15-21.9147C1872.59-22.222 1872.39-22.9196 1872.7-23.4728 1873.01-24.026 1873.7-24.2253 1874.26-23.918Z" transform="matrix(-1 0 0 1 4038.31 1528)"/><text font-family="MS Gothic,MS Gothic_MSFontService,sans-serif" font-weight="400" font-size="83" transform="matrix(1 0 0 1 2233 1496)">SUBSCRIBE </text><text font-family="MS Gothic,MS Gothic_MSFontService,sans-serif" font-weight="400" font-size="83" transform="matrix(1 0 0 1 2645.5 1496)">TopicFilter:ControlTopic</text><path d="M2122 1652.85 4036.97 1652.85 4036.97 1655.15 2122 1655.15ZM3996.26 1630.08 4039.31 1654 3996.26 1677.92C3995.7 1678.23 3995.01 1678.03 3994.7 1677.47 3994.39 1676.92 3994.59 1676.22 3995.15 1675.92L4036.4 1653 4036.4 1655 3995.15 1632.09C3994.59 1631.78 3994.39 1631.08 3994.7 1630.53 3995.01 1629.97 3995.7 1629.77 3996.26 1630.08Z"/><text font-family="MS Gothic,MS Gothic_MSFontService,sans-serif" font-weight="400" font-size="83" transform="matrix(1 0 0 1 2237.58 1633)">SUBACK</text><path d="M204 1791.85 2118.97 1791.85 2118.97 1794.15 204 1794.15ZM2078.26 1769.08 2121.31 1793 2078.26 1816.92C2077.7 1817.23 2077.01 1817.03 2076.7 1816.47 2076.39 1815.92 2076.59 1815.22 2077.14 1814.92L2118.39 1792 2118.39 1794 2077.14 1771.09C2076.59 1770.78 2076.39 1770.08 2076.7 1769.53 2077.01 1768.97 2077.7 1768.77 2078.26 1769.08Z"/><text font-family="MS Gothic,MS Gothic_MSFontService,sans-serif" font-weight="400" font-size="83" transform="matrix(1 0 0 1 319.231 1669)">PUBLISH </text><text font-family="MS Gothic,MS Gothic_MSFontService,sans-serif" font-weight="400" font-size="83" transform="matrix(1 0 0 1 649.231 1669)">TopicName:ControlTopic</text><text font-family="MS Gothic,MS Gothic_MSFontService,sans-serif" font-weight="400" font-size="83" transform="matrix(1 0 0 1 1556.73 1669)">, </text><text font-family="MS Gothic,MS Gothic_MSFontService,sans-serif" font-weight="400" font-size="83" transform="matrix(1 0 0 1 319.231 1768)">ResponseTopic:</text><text fill="#0000FF" font-family="MS Gothic,MS Gothic_MSFontService,sans-serif" font-weight="400" font-size="83" transform="matrix(1 0 0 1 896.731 1768)">BGTFC1</text><text font-family="MS Gothic,MS Gothic_MSFontService,sans-serif" font-weight="400" font-size="83" transform="matrix(1 0 0 1 1144.23 1768)">, </text><text font-family="MS Gothic,MS Gothic_MSFontService,sans-serif" font-weight="400" font-size="83" transform="matrix(1 0 0 1 1226.73 1768)">Payload:TurnOnSwitch</text><path d="M2122 1831.85 4036.97 1831.85 4036.97 1834.15 2122 1834.15ZM3996.26 1809.08 4039.31 1833 3996.26 1856.92C3995.7 1857.23 3995.01 1857.03 3994.7 1856.47 3994.39 1855.92 3994.59 1855.22 3995.15 1854.92L4036.4 1832 4036.4 1834 3995.15 1811.09C3994.59 1810.78 3994.39 1810.08 3994.7 1809.53 3995.01 1808.97 3995.7 1808.77 3996.26 1809.08Z"/><text font-family="MS Gothic,MS Gothic_MSFontService,sans-serif" font-weight="400" font-size="83" transform="matrix(1 0 0 1 2237.58 1812)">deliver PUBLISH</text><path d="M3151.5 1879.5 4022.5 1879.5 4022.5 1972 4004 1990.5 3151.5 1990.5Z" fill="#FFE699" fill-rule="evenodd"/><path d="M4004 1990.5 4007.7 1975.7 4022.5 1972Z" fill="#CDB97B" fill-rule="evenodd"/><path d="M4004 1990.5 4007.7 1975.7 4022.5 1972 4004 1990.5 3151.5 1990.5 3151.5 1879.5 4022.5 1879.5 4022.5 1972" stroke="#172C51" stroke-width="4.58333" stroke-miterlimit="8" fill="none" fill-rule="evenodd"/><text font-family="MS Gothic,MS Gothic_MSFontService,sans-serif" font-weight="400" font-size="64" transform="matrix(1 0 0 1 3217.8 1947)">Use </text><text fill="#0000FF" font-family="MS Gothic,MS Gothic_MSFontService,sans-serif" font-weight="400" font-size="64" transform="matrix(1 0 0 1 3346.13 1947)">BGTFC1</text><text font-family="MS Gothic,MS Gothic_MSFontService,sans-serif" font-weight="400" font-size="64" transform="matrix(1 0 0 1 3570.71 1947)">for response</text><path d="M2.15678e-07-1.14583 1914.97-1.14547 1914.97 1.14619-2.15678e-07 1.14583ZM1874.26-23.918 1917.31 0.00036081 1874.26 23.9187C1873.7 24.226 1873.01 24.0267 1872.7 23.4735 1872.39 22.9203 1872.59 22.2227 1873.15 21.9154L1914.4-1.00128 1914.4 1.002 1873.15-21.9147C1872.59-22.222 1872.39-22.9196 1872.7-23.4728 1873.01-24.026 1873.7-24.2253 1874.26-23.918Z" transform="matrix(-1 0 0 1 4038.31 2174)"/><text font-family="MS Gothic,MS Gothic_MSFontService,sans-serif" font-weight="400" font-size="83" transform="matrix(1 0 0 1 2233 2142)">PUBLISH TopicName:</text><text fill="#0000FF" font-family="MS Gothic,MS Gothic_MSFontService,sans-serif" font-weight="400" font-size="83" transform="matrix(1 0 0 1 2975.5 2142)">BGTFC1</text><text font-family="MS Gothic,MS Gothic_MSFontService,sans-serif" font-weight="400" font-size="83" transform="matrix(1 0 0 1 3223 2142)">, </text><text font-family="MS Gothic,MS Gothic_MSFontService,sans-serif" font-weight="400" font-size="83" transform="matrix(1 0 0 1 3305.5 2142)">Payload:Success</text><path d="M2.15678e-07-1.14583 1914.97-1.14547 1914.97 1.14619-2.15678e-07 1.14583ZM1874.26-23.918 1917.31 0.00036081 1874.26 23.9187C1873.7 24.226 1873.01 24.0267 1872.7 23.4735 1872.39 22.9203 1872.59 22.2227 1873.15 21.9154L1914.4-1.00128 1914.4 1.002 1873.15-21.9147C1872.59-22.222 1872.39-22.9196 1872.7-23.4728 1873.01-24.026 1873.7-24.2253 1874.26-23.918Z" transform="matrix(-1 0 0 1 2121.31 2203)"/><text font-family="MS Gothic,MS Gothic_MSFontService,sans-serif" font-weight="400" font-size="83" transform="matrix(1 0 0 1 316.045 2171)">deliver PUBLISH</text><path d="M279.5 2236.5 1150.5 2236.5 1150.5 2329 1132 2347.5 279.5 2347.5Z" fill="#FFE699" fill-rule="evenodd"/><path d="M1132 2347.5 1135.7 2332.7 1150.5 2329Z" fill="#CDB97B" fill-rule="evenodd"/><path d="M1132 2347.5 1135.7 2332.7 1150.5 2329 1132 2347.5 279.5 2347.5 279.5 2236.5 1150.5 2236.5 1150.5 2329" stroke="#172C51" stroke-width="4.58333" stroke-miterlimit="8" fill="none" fill-rule="evenodd"/><text font-family="MS Gothic,MS Gothic_MSFontService,sans-serif" font-weight="400" font-size="64" transform="matrix(1 0 0 1 329.177 2303)">Get the control response</text></g></svg>