<svg width="3322" height="1459" xmlns="http://www.w3.org/2000/svg" xmlns:xlink="http://www.w3.org/1999/xlink" xml:space="preserve" overflow="hidden"><g transform="translate(-227 -142)"><rect x="1024.5" y="388.5" width="359" height="133" stroke="#000000" stroke-width="3.4375" stroke-linejoin="round" stroke-miterlimit="10" fill="none"/><text font-family="MS Gothic,MS Gothic_MSFontService,sans-serif" font-weight="400" font-size="83" transform="matrix(1 0 0 1 1057.38 489)">client1</text><path d="M0 0 0.357283 1078.09" stroke="#000000" stroke-width="2.29167" stroke-miterlimit="8" fill="none" fill-rule="evenodd" transform="matrix(-1 0 0 1 1203.36 521)"/><rect x="2440.5" y="388.5" width="317" height="133" stroke="#000000" stroke-width="3.4375" stroke-linejoin="round" stroke-miterlimit="10" fill="none"/><text font-family="MS Gothic,MS Gothic_MSFontService,sans-serif" font-weight="400" font-size="83" transform="matrix(1 0 0 1 2473.4 489)">broker</text><path d="M2599 521 2599 1599.09" stroke="#000000" stroke-width="2.29167" stroke-miterlimit="8" fill="none" fill-rule="evenodd"/><path d="M1203 804.854 2596.19 804.855 2596.19 807.146 1203 807.146ZM2555.5 782.082 2598.55 806 2555.5 829.919C2554.95 830.226 2554.25 830.027 2553.94 829.474 2553.64 828.92 2553.83 828.223 2554.39 827.916L2595.64 804.999 2595.64 807.002 2554.39 784.085C2553.83 783.778 2553.64 783.081 2553.94 782.527 2554.25 781.974 2554.95 781.775 2555.5 782.082Z"/><text font-family="MS Gothic,MS Gothic_MSFontService,sans-serif" font-weight="400" font-size="83" transform="matrix(1 0 0 1 1318.4 785)">CONNECT TopicAliasMaximum:10</text><path d="M2.96314e-07-1.14583 1393.19-1.14547 1393.19 1.14619-2.96314e-07 1.14583ZM1352.5-23.918 1395.55 0.000360765 1352.5 23.9187C1351.95 24.226 1351.25 24.0267 1350.94 23.4735 1350.64 22.9203 1350.83 22.2227 1351.39 21.9154L1392.64-1.00128 1392.64 1.002 1351.39-21.9147C1350.83-22.222 1350.64-22.9196 1350.94-23.4728 1351.25-24.026 1351.95-24.2253 1352.5-23.918Z" transform="matrix(-1 0 0 1 2598.56 1459)"/><text font-family="MS Gothic,MS Gothic_MSFontService,sans-serif" font-weight="400" font-size="83" transform="matrix(1 0 0 1 1318.4 1438)">CONNACK TopicAliasMaximum:20</text><path d="M682.5 151.5 1724.5 151.5 1724.5 328.166 1689.17 363.5 682.5 363.5Z" fill="#FFE699" fill-rule="evenodd"/><path d="M1689.17 363.5 1696.23 335.232 1724.5 328.166Z" fill="#CDB97B" fill-rule="evenodd"/><path d="M1689.17 363.5 1696.23 335.232 1724.5 328.166 1689.17 363.5 682.5 363.5 682.5 151.5 1724.5 151.5 1724.5 328.166" stroke="#172C51" stroke-width="4.58333" stroke-miterlimit="8" fill="none" fill-rule="evenodd"/><text font-family="MS Gothic,MS Gothic_MSFontService,sans-serif" font-weight="400" font-size="64" transform="matrix(1 0 0 1 721.875 228)">client1 prepares 10 </text><text font-family="MS Gothic,MS Gothic_MSFontService,sans-serif" font-weight="400" font-size="64" transform="matrix(1 0 0 1 1363.54 228)">TopicAlias</text><text font-family="MS Gothic,MS Gothic_MSFontService,sans-serif" font-weight="400" font-size="64" transform="matrix(1 0 0 1 898.333 299)">capacity to receive</text><path d="M2629.5 859.5 3540.5 859.5 3540.5 1002.83 3511.83 1031.5 2629.5 1031.5Z" fill="#FFE699" fill-rule="evenodd"/><path d="M3511.83 1031.5 3517.57 1008.57 3540.5 1002.83Z" fill="#CDB97B" fill-rule="evenodd"/><path d="M3511.83 1031.5 3517.57 1008.57 3540.5 1002.83 3511.83 1031.5 2629.5 1031.5 2629.5 859.5 3540.5 859.5 3540.5 1002.83" stroke="#172C51" stroke-width="4.58333" stroke-miterlimit="8" fill="none" fill-rule="evenodd"/><text font-family="MS Gothic,MS Gothic_MSFontService,sans-serif" font-weight="400" font-size="64" transform="matrix(1 0 0 1 2763.55 920)">broker can send 1</text><text font-family="MS Gothic,MS Gothic_MSFontService,sans-serif" font-weight="400" font-size="64" transform="matrix(1 0 0 1 3308.97 920)">-</text><text font-family="MS Gothic,MS Gothic_MSFontService,sans-serif" font-weight="400" font-size="64" transform="matrix(1 0 0 1 3341.05 920)">10 </text><text font-family="MS Gothic,MS Gothic_MSFontService,sans-serif" font-weight="400" font-size="64" transform="matrix(1 0 0 1 2747.51 991)">TopicAlias</text><text font-family="MS Gothic,MS Gothic_MSFontService,sans-serif" font-weight="400" font-size="64" transform="matrix(1 0 0 1 3100.43 991)">to client1</text><path d="M2169.5 151.5 3395.5 151.5 3395.5 328.166 3360.17 363.5 2169.5 363.5Z" fill="#FFE699" fill-rule="evenodd"/><path d="M3360.17 363.5 3367.23 335.232 3395.5 328.166Z" fill="#CDB97B" fill-rule="evenodd"/><path d="M3360.17 363.5 3367.23 335.232 3395.5 328.166 3360.17 363.5 2169.5 363.5 2169.5 151.5 3395.5 151.5 3395.5 328.166" stroke="#172C51" stroke-width="4.58333" stroke-miterlimit="8" fill="none" fill-rule="evenodd"/><text font-family="MS Gothic,MS Gothic_MSFontService,sans-serif" font-weight="400" font-size="64" transform="matrix(1 0 0 1 2316.83 228)">broker prepares 20 </text><text font-family="MS Gothic,MS Gothic_MSFontService,sans-serif" font-weight="400" font-size="64" transform="matrix(1 0 0 1 2926.42 228)">TopicAlias</text><text font-family="MS Gothic,MS Gothic_MSFontService,sans-serif" font-weight="400" font-size="64" transform="matrix(1 0 0 1 2220.58 299)">capacity to receive for each client</text><path d="M229.5 1152.5 1173.5 1152.5 1173.5 1295 1145 1323.5 229.5 1323.5Z" fill="#FFE699" fill-rule="evenodd"/><path d="M1145 1323.5 1150.7 1300.7 1173.5 1295Z" fill="#CDB97B" fill-rule="evenodd"/><path d="M1145 1323.5 1150.7 1300.7 1173.5 1295 1145 1323.5 229.5 1323.5 229.5 1152.5 1173.5 1152.5 1173.5 1295" stroke="#172C51" stroke-width="4.58333" stroke-miterlimit="8" fill="none" fill-rule="evenodd"/><text font-family="MS Gothic,MS Gothic_MSFontService,sans-serif" font-weight="400" font-size="64" transform="matrix(1 0 0 1 363.896 1212)">client1 can send 1</text><text font-family="MS Gothic,MS Gothic_MSFontService,sans-serif" font-weight="400" font-size="64" transform="matrix(1 0 0 1 941.396 1212)">-</text><text font-family="MS Gothic,MS Gothic_MSFontService,sans-serif" font-weight="400" font-size="64" transform="matrix(1 0 0 1 973.479 1212)">20 </text><text font-family="MS Gothic,MS Gothic_MSFontService,sans-serif" font-weight="400" font-size="64" transform="matrix(1 0 0 1 315.771 1283)">TopicAlias</text><text font-family="MS Gothic,MS Gothic_MSFontService,sans-serif" font-weight="400" font-size="64" transform="matrix(1 0 0 1 668.688 1283)">to the broker</text></g></svg>