<svg width="2038" height="1176" xmlns="http://www.w3.org/2000/svg" xmlns:xlink="http://www.w3.org/1999/xlink" xml:space="preserve" overflow="hidden"><g transform="translate(-1410 -140)"><rect x="1412.5" y="246.5" width="911" height="1067" stroke="#000000" stroke-width="4.58333" stroke-miterlimit="8" fill="#FFE699"/><text font-family="MS Gothic,MS Gothic_MSFontService,sans-serif" font-weight="400" font-size="83" transform="matrix(1 0 0 1 1661.55 347)">async_mqtt</text><rect x="1412.5" y="142.5" width="307" height="104" stroke="#000000" stroke-width="4.58333" stroke-miterlimit="8" fill="#FFE699"/><rect x="1517.5" y="413.5" width="683" height="225" stroke="#000000" stroke-width="4.58333" stroke-miterlimit="8" fill="#FFFFFF"/><text font-family="MS Gothic,MS Gothic_MSFontService,sans-serif" font-weight="400" font-size="83" transform="matrix(1 0 0 1 1652.19 561)">connection</text><rect x="1517.5" y="973.5" width="683" height="224" stroke="#000000" stroke-width="4.58333" stroke-miterlimit="8" fill="#FFFFFF"/><text font-family="MS Gothic,MS Gothic_MSFontService,sans-serif" font-weight="400" font-size="83" transform="matrix(1 0 0 1 1590.31 1120)">rv_connection</text><path d="M1.14583-1.23455e-06 1.14615 293.708-1.14552 293.708-1.14583 1.23455e-06ZM22.917 289.125 0.000360892 334.958-22.9164 289.125Z" transform="matrix(1 0 0 -1 1858 972.958)"/><rect x="2428.5" y="973.5" width="1017" height="224" stroke="#000000" stroke-width="4.58333" stroke-miterlimit="8" fill="#FFFFFF"/><text font-family="MS Gothic,MS Gothic_MSFontService,sans-serif" font-weight="400" font-size="83" transform="matrix(1 0 0 1 2482.69 1120)">user_custom_connection</text><path d="M2935.66 974.053 1897.05 651.334 1897.73 649.146 2936.34 971.864ZM1894.97 673.485 1858 638 1908.57 629.715Z"/></g></svg>