<svg width="3543" height="1885" xmlns="http://www.w3.org/2000/svg" xmlns:xlink="http://www.w3.org/1999/xlink" xml:space="preserve" overflow="hidden"><g transform="translate(-241 -175)"><rect x="258.5" y="184.5" width="1266" height="152" stroke="#000000" stroke-width="4.58333" stroke-miterlimit="8" fill="none"/><text font-family="MS Gothic,MS Gothic_MSFontService,sans-serif" font-weight="400" font-size="83" transform="matrix(1 0 0 1 290.673 285)">+ send()</text><rect x="1971.5" y="184.5" width="1810" height="152" stroke="#000000" stroke-width="4.58333" stroke-miterlimit="8" fill="none"/><text font-family="MS Gothic,MS Gothic_MSFontService,sans-serif" font-weight="400" font-size="83" transform="matrix(1 0 0 1 2003.87 285)">-</text><text font-family="MS Gothic,MS Gothic_MSFontService,sans-serif" font-weight="400" font-size="83" transform="matrix(1 0 0 1 2086.37 285)">virtual </text><text font-family="MS Gothic,MS Gothic_MSFontService,sans-serif" font-weight="400" font-size="83" transform="matrix(1 0 0 1 2416.37 285)">on_error</text><text font-family="MS Gothic,MS Gothic_MSFontService,sans-serif" font-weight="400" font-size="83" transform="matrix(1 0 0 1 2746.37 285)">(...) = 0</text><path d="M1524.5 257.063 1964.41 257.063 1964.41 263.938 1524.5 263.938ZM1938.64 241.489 1971.23 260.5 1938.64 279.511C1937 280.468 1934.9 279.914 1933.94 278.274 1932.99 276.634 1933.54 274.529 1935.18 273.573L1962.68 257.531 1962.68 263.47 1935.18 247.428C1933.54 246.471 1932.99 244.367 1933.94 242.727 1934.9 241.087 1937 240.533 1938.64 241.489Z" fill="#FF0000"/><rect x="263.5" y="526.5" width="1267" height="152" stroke="#000000" stroke-width="4.58333" stroke-miterlimit="8" fill="none"/><text font-family="MS Gothic,MS Gothic_MSFontService,sans-serif" font-weight="400" font-size="83" transform="matrix(1 0 0 1 296.266 627)">+ </text><text font-family="MS Gothic,MS Gothic_MSFontService,sans-serif" font-weight="400" font-size="83" transform="matrix(1 0 0 1 378.766 627)">recv</text><text font-family="MS Gothic,MS Gothic_MSFontService,sans-serif" font-weight="400" font-size="83" transform="matrix(1 0 0 1 543.766 627)">()</text><rect x="258.5" y="1210.5" width="1266" height="152" stroke="#000000" stroke-width="4.58333" stroke-miterlimit="8" fill="none"/><text font-family="MS Gothic,MS Gothic_MSFontService,sans-serif" font-weight="400" font-size="83" transform="matrix(1 0 0 1 290.673 1312)">+ </text><text font-family="MS Gothic,MS Gothic_MSFontService,sans-serif" font-weight="400" font-size="83" transform="matrix(1 0 0 1 373.173 1312)">notify_timer_fired</text><text font-family="MS Gothic,MS Gothic_MSFontService,sans-serif" font-weight="400" font-size="83" transform="matrix(1 0 0 1 1115.67 1312)">()</text><rect x="258.5" y="1895.5" width="1266" height="152" stroke="#000000" stroke-width="4.58333" stroke-miterlimit="8" fill="none"/><text font-family="MS Gothic,MS Gothic_MSFontService,sans-serif" font-weight="400" font-size="83" transform="matrix(1 0 0 1 290.673 1996)">+ </text><text font-family="MS Gothic,MS Gothic_MSFontService,sans-serif" font-weight="400" font-size="83" transform="matrix(1 0 0 1 373.173 1996)">set_pingreq_send_interval</text><text font-family="MS Gothic,MS Gothic_MSFontService,sans-serif" font-weight="400" font-size="83" transform="matrix(1 0 0 1 1404.42 1996)">()</text><rect x="258.5" y="868.5" width="1266" height="152" stroke="#000000" stroke-width="4.58333" stroke-miterlimit="8" fill="none"/><text font-family="MS Gothic,MS Gothic_MSFontService,sans-serif" font-weight="400" font-size="83" transform="matrix(1 0 0 1 290.673 970)">+ </text><text font-family="MS Gothic,MS Gothic_MSFontService,sans-serif" font-weight="400" font-size="83" transform="matrix(1 0 0 1 373.173 970)">release_packet_id</text><text font-family="MS Gothic,MS Gothic_MSFontService,sans-serif" font-weight="400" font-size="83" transform="matrix(1 0 0 1 1074.42 970)">()</text><rect x="1971.5" y="526.5" width="1810" height="152" stroke="#000000" stroke-width="4.58333" stroke-miterlimit="8" fill="none"/><text font-family="MS Gothic,MS Gothic_MSFontService,sans-serif" font-weight="400" font-size="83" transform="matrix(1 0 0 1 2003.87 627)">-</text><text font-family="MS Gothic,MS Gothic_MSFontService,sans-serif" font-weight="400" font-size="83" transform="matrix(1 0 0 1 2086.37 627)">virtual </text><text font-family="MS Gothic,MS Gothic_MSFontService,sans-serif" font-weight="400" font-size="83" transform="matrix(1 0 0 1 2416.37 627)">on_send</text><text font-family="MS Gothic,MS Gothic_MSFontService,sans-serif" font-weight="400" font-size="83" transform="matrix(1 0 0 1 2705.12 627)">(...) = 0</text><rect x="1971.5" y="868.5" width="1810" height="152" stroke="#000000" stroke-width="4.58333" stroke-miterlimit="8" fill="none"/><text font-family="MS Gothic,MS Gothic_MSFontService,sans-serif" font-weight="400" font-size="83" transform="matrix(1 0 0 1 2003.87 970)">-</text><text font-family="MS Gothic,MS Gothic_MSFontService,sans-serif" font-weight="400" font-size="83" transform="matrix(1 0 0 1 2086.37 970)">virtual </text><text font-family="MS Gothic,MS Gothic_MSFontService,sans-serif" font-weight="400" font-size="83" transform="matrix(1 0 0 1 2416.37 970)">on_packet_id_release</text><text font-family="MS Gothic,MS Gothic_MSFontService,sans-serif" font-weight="400" font-size="83" transform="matrix(1 0 0 1 3241.37 970)">(...) = 0</text><rect x="1971.5" y="1210.5" width="1810" height="152" stroke="#000000" stroke-width="4.58333" stroke-miterlimit="8" fill="none"/><text font-family="MS Gothic,MS Gothic_MSFontService,sans-serif" font-weight="400" font-size="83" transform="matrix(1 0 0 1 2003.87 1312)">-</text><text font-family="MS Gothic,MS Gothic_MSFontService,sans-serif" font-weight="400" font-size="83" transform="matrix(1 0 0 1 2086.37 1312)">virtual </text><text font-family="MS Gothic,MS Gothic_MSFontService,sans-serif" font-weight="400" font-size="83" transform="matrix(1 0 0 1 2416.37 1312)">on_receive</text><text font-family="MS Gothic,MS Gothic_MSFontService,sans-serif" font-weight="400" font-size="83" transform="matrix(1 0 0 1 2828.87 1312)">(...) = 0</text><rect x="1971.5" y="1553.5" width="1810" height="152" stroke="#000000" stroke-width="4.58333" stroke-miterlimit="8" fill="none"/><text font-family="MS Gothic,MS Gothic_MSFontService,sans-serif" font-weight="400" font-size="83" transform="matrix(1 0 0 1 2003.87 1654)">-</text><text font-family="MS Gothic,MS Gothic_MSFontService,sans-serif" font-weight="400" font-size="83" transform="matrix(1 0 0 1 2086.37 1654)">virtual </text><text font-family="MS Gothic,MS Gothic_MSFontService,sans-serif" font-weight="400" font-size="83" transform="matrix(1 0 0 1 2416.37 1654)">on_close</text><text font-family="MS Gothic,MS Gothic_MSFontService,sans-serif" font-weight="400" font-size="83" transform="matrix(1 0 0 1 2746.37 1654)">() = 0</text><rect x="1971.5" y="1895.5" width="1810" height="152" stroke="#000000" stroke-width="4.58333" stroke-miterlimit="8" fill="none"/><text font-family="MS Gothic,MS Gothic_MSFontService,sans-serif" font-weight="400" font-size="83" transform="matrix(1 0 0 1 2003.87 1996)">-</text><text font-family="MS Gothic,MS Gothic_MSFontService,sans-serif" font-weight="400" font-size="83" transform="matrix(1 0 0 1 2086.37 1996)">virtual </text><text font-family="MS Gothic,MS Gothic_MSFontService,sans-serif" font-weight="400" font-size="83" transform="matrix(1 0 0 1 2416.37 1996)">on_timer_op</text><text font-family="MS Gothic,MS Gothic_MSFontService,sans-serif" font-weight="400" font-size="83" transform="matrix(1 0 0 1 2870.12 1996)">(...) = 0</text><path d="M1527.83 259.632 1972.82 1964.46 1966.17 1966.19 1521.17 261.368ZM1981.39 1935.6 1971.22 1971.93 1944.6 1945.2C1943.26 1943.85 1943.26 1941.68 1944.61 1940.34 1945.95 1939 1948.13 1939 1949.47 1940.35L1971.94 1962.91 1966.19 1964.41 1974.77 1933.75C1975.28 1931.92 1977.17 1930.85 1979 1931.36 1980.83 1931.87 1981.9 1933.77 1981.39 1935.6Z" fill="#FF0000"/><path d="M2.1073-2.71583 437.859 335.398 433.645 340.829-2.1073 2.71583ZM427.044 307.295 441.138 342.293 403.736 337.334C401.854 337.084 400.53 335.356 400.78 333.474 401.03 331.592 402.757 330.269 404.639 330.519L436.2 334.703 432.56 339.395 420.667 309.863C419.958 308.102 420.811 306.099 422.572 305.39 424.333 304.681 426.335 305.534 427.044 307.295Z" fill="#4472C4" transform="matrix(1 0 0 -1 1530.5 602.783)"/><path d="M1530.5 599.063 1964.82 599.063 1964.82 605.938 1530.5 605.938ZM1939.05 583.49 1971.64 602.5 1939.05 621.511C1937.41 622.468 1935.31 621.914 1934.35 620.274 1933.39 618.634 1933.95 616.529 1935.59 615.573L1963.09 599.531 1963.09 605.47 1935.59 589.428C1933.95 588.471 1933.39 586.367 1934.35 584.727 1935.31 583.087 1937.41 582.533 1939.05 583.49Z" fill="#4472C4"/><path d="M1532.61 599.784 1968.36 937.898 1964.14 943.33 1528.39 605.216ZM1957.54 909.795 1971.64 944.793 1934.24 939.834C1932.35 939.585 1931.03 937.857 1931.28 935.975 1931.53 934.093 1933.26 932.769 1935.14 933.019L1966.7 937.203 1963.06 941.895 1951.17 912.363C1950.46 910.602 1951.31 908.599 1953.07 907.89 1954.83 907.181 1956.84 908.034 1957.54 909.795Z" fill="#4472C4"/><path d="M1533.39 600.638 1970.83 1279.49 1965.05 1283.21 1527.61 604.362ZM1969.96 1249.39 1971.63 1287.08 1938 1269.98C1936.31 1269.12 1935.63 1267.05 1936.49 1265.36 1937.35 1263.67 1939.42 1262.99 1941.12 1263.85L1969.5 1278.28 1964.5 1281.5 1963.09 1249.69C1963.01 1247.8 1964.48 1246.19 1966.37 1246.11 1968.27 1246.02 1969.88 1247.49 1969.96 1249.39Z" fill="#4472C4"/><path d="M1533.66 601.143 1972.1 1621.74 1965.78 1624.45 1527.34 603.857ZM1976.24 1591.92 1971.63 1629.36 1941.3 1606.92C1939.77 1605.8 1939.45 1603.64 1940.58 1602.12 1941.71 1600.59 1943.86 1600.27 1945.39 1601.4L1970.98 1620.33 1965.53 1622.68 1969.41 1591.08C1969.64 1589.19 1971.36 1587.85 1973.24 1588.09 1975.13 1588.32 1976.47 1590.03 1976.24 1591.92Z" fill="#4472C4"/><path d="M1533.77 601.446 1972.8 1964.07 1966.26 1966.18 1527.23 603.554ZM1979.73 1934.8 1971.63 1971.65 1943.54 1946.46C1942.13 1945.19 1942.01 1943.02 1943.28 1941.6 1944.54 1940.19 1946.72 1940.07 1948.13 1941.34L1971.83 1962.6 1966.18 1964.42 1973.02 1933.32C1973.42 1931.47 1975.26 1930.3 1977.11 1930.7 1978.97 1931.11 1980.14 1932.94 1979.73 1934.8Z" fill="#4472C4"/><path d="M2.87878-1.87857 445.879 676.99 440.122 680.747-2.87878 1.87857ZM444.838 646.898 446.727 684.58 412.996 667.677C411.299 666.826 410.613 664.761 411.463 663.063 412.314 661.366 414.379 660.68 416.076 661.53L444.539 675.794 439.566 679.039 437.972 647.242C437.877 645.346 439.337 643.732 441.233 643.637 443.129 643.542 444.743 645.002 444.838 646.898Z" fill="#00B050" transform="matrix(1 0 0 -1 1524.5 1287.07)"/><path d="M1526.59 1283.77 1967.9 1621.91 1963.72 1627.37 1522.41 1289.23ZM1956.92 1593.88 1971.23 1628.79 1933.8 1624.06C1931.92 1623.82 1930.58 1622.1 1930.82 1620.22 1931.06 1618.34 1932.78 1617 1934.66 1617.24L1966.25 1621.23 1962.64 1625.95 1950.56 1596.49C1949.84 1594.73 1950.68 1592.72 1952.44 1592 1954.2 1591.28 1956.2 1592.12 1956.92 1593.88Z" fill="#00B050"/><path d="M1524.5 1968.06 1964.41 1968.06 1964.41 1974.94 1524.5 1974.94ZM1938.64 1952.49 1971.23 1971.5 1938.64 1990.51C1937 1991.47 1934.9 1990.91 1933.94 1989.27 1932.99 1987.63 1933.54 1985.53 1935.18 1984.57L1962.68 1968.53 1962.68 1974.47 1935.18 1958.43C1933.54 1957.47 1932.99 1955.37 1933.94 1953.73 1934.9 1952.09 1937 1951.53 1938.64 1952.49Z" fill="#00B0F0"/><path d="M2.77707e-06-3.4375 439.912-3.43714 439.912 3.43786-2.77707e-06 3.4375ZM414.145-19.0106 446.735 0.000359631 414.145 19.0112C412.505 19.9678 410.4 19.4139 409.443 17.7741 408.487 16.1342 409.041 14.0293 410.68 13.0728L438.18-2.96889 438.18 2.96959 410.68-13.0721C409.041-14.0287 408.487-16.1335 409.443-17.7734 410.4-19.4133 412.505-19.9672 414.145-19.0106Z" fill="#C55A11" transform="matrix(1 0 0 -1 1524.5 944.5)"/><rect x="258.5" y="1553.5" width="1266" height="152" stroke="#000000" stroke-width="4.58333" stroke-miterlimit="8" fill="none"/><text font-family="MS Gothic,MS Gothic_MSFontService,sans-serif" font-weight="400" font-size="83" transform="matrix(1 0 0 1 290.673 1654)">+ </text><text font-family="MS Gothic,MS Gothic_MSFontService,sans-serif" font-weight="400" font-size="83" transform="matrix(1 0 0 1 373.173 1654)">notify</text><text font-family="MS Gothic,MS Gothic_MSFontService,sans-serif" font-weight="400" font-size="83" transform="matrix(1 0 0 1 620.673 1654)">_</text><text font-family="MS Gothic,MS Gothic_MSFontService,sans-serif" font-weight="400" font-size="83" transform="matrix(1 0 0 1 661.923 1654)">closed</text><text font-family="MS Gothic,MS Gothic_MSFontService,sans-serif" font-weight="400" font-size="83" transform="matrix(1 0 0 1 909.423 1654)">()</text><path d="M1526.59 1626.77 1967.91 1964.91 1963.73 1970.37 1522.41 1632.23ZM1956.92 1936.88 1971.23 1971.79 1933.8 1967.06C1931.92 1966.82 1930.58 1965.1 1930.82 1963.22 1931.06 1961.34 1932.78 1960 1934.66 1960.24L1966.25 1964.23 1962.64 1968.95 1950.56 1939.49C1949.84 1937.73 1950.68 1935.72 1952.44 1935 1954.2 1934.28 1956.2 1935.12 1956.92 1936.88Z" fill="#BF9000"/><path d="M1527.38 258.621 1970.38 937.49 1964.62 941.247 1521.62 262.379ZM1969.34 907.398 1971.23 945.08 1937.5 928.176C1935.8 927.326 1935.11 925.26 1935.96 923.563 1936.81 921.866 1938.88 921.179 1940.58 922.03L1969.04 936.294 1964.07 939.539 1962.47 907.742C1962.38 905.846 1963.84 904.232 1965.73 904.137 1967.63 904.042 1969.24 905.502 1969.34 907.398Z" fill="#FF0000"/><path d="M1526.59 257.771 1967.9 595.912 1963.72 601.369 1522.41 263.229ZM1956.92 567.881 1971.23 602.793 1933.8 598.062C1931.92 597.824 1930.58 596.104 1930.82 594.221 1931.06 592.337 1932.78 591.003 1934.66 591.241L1966.25 595.233 1962.64 599.947 1950.56 570.488C1949.84 568.731 1950.68 566.724 1952.44 566.004 1954.2 565.284 1956.2 566.124 1956.92 567.881Z" fill="#FF0000"/><path d="M3.15213-1.3713 447.164 1019.26 440.86 1022-3.15213 1.3713ZM451.157 989.396 446.725 1026.86 416.292 1004.56C414.76 1003.44 414.428 1001.29 415.551 999.76 416.673 998.228 418.824 997.896 420.355 999.019L446.035 1017.84 440.59 1020.21 444.33 988.589C444.553 986.703 446.262 985.356 448.147 985.579 450.032 985.802 451.38 987.511 451.157 989.396Z" fill="#00B050" transform="matrix(1 0 0 -1 1524.5 1287.35)"/><path d="M2.87878-1.87857 445.879 676.99 440.122 680.747-2.87878 1.87857ZM444.838 646.898 446.727 684.58 412.996 667.677C411.299 666.826 410.613 664.761 411.463 663.063 412.314 661.366 414.379 660.68 416.076 661.53L444.539 675.794 439.566 679.039 437.972 647.242C437.877 645.346 439.337 643.732 441.233 643.637 443.129 643.542 444.743 645.002 444.838 646.898Z" fill="#BF9000" transform="matrix(1 0 0 -1 1524.5 1629.07)"/></g></svg>