<svg width="1773" height="1107" xmlns="http://www.w3.org/2000/svg" xmlns:xlink="http://www.w3.org/1999/xlink" xml:space="preserve" overflow="hidden"><g transform="translate(-1405 -231)"><rect x="1409.5" y="233.5" width="1766" height="904" stroke="#172C51" stroke-width="4.58333" stroke-miterlimit="8" fill="#C5E0B4"/><text font-family="MS Gothic,MS Gothic_MSFontService,sans-serif" font-weight="400" font-size="83" transform="matrix(1 0 0 1 1900.1 1106)">basic_stream_socket</text><rect x="1850.5" y="458.5" width="882" height="449" stroke="#172C51" stroke-width="4.58333" stroke-miterlimit="8" fill="#F8CBAD"/><text font-family="MS Gothic,MS Gothic_MSFontService,sans-serif" font-weight="400" font-size="83" transform="matrix(1 0 0 1 2063.71 876)">ssl</text><text font-family="MS Gothic,MS Gothic_MSFontService,sans-serif" font-weight="400" font-size="83" transform="matrix(1 0 0 1 2187.46 876)">::</text><text font-family="MS Gothic,MS Gothic_MSFontService,sans-serif" font-weight="400" font-size="83" transform="matrix(1 0 0 1 2269.96 876)">stream</text><rect x="1409.5" y="233.5" width="882" height="449" stroke="#172C51" stroke-width="4.58333" stroke-miterlimit="8" fill="#FFE699"/><text font-family="MS Gothic,MS Gothic_MSFontService,sans-serif" font-weight="400" font-size="83" transform="matrix(1 0 0 1 1664.04 652)">websocket</text><rect x="1409.5" y="233.5" width="1766" height="225" stroke="#172C51" stroke-width="4.58333" stroke-miterlimit="8" fill="#9DC3E6"/><text font-family="MS Gothic,MS Gothic_MSFontService,sans-serif" font-weight="400" font-size="83" transform="matrix(1 0 0 1 2085.73 381)">async_mqtt</text><path d="M1850 713 1850 1327.19" stroke="#4472C4" stroke-width="2.29167" stroke-miterlimit="8" stroke-dasharray="9.16667 6.875" fill="none" fill-rule="evenodd"/><path d="M2291 685 2291 1336.08" stroke="#4472C4" stroke-width="2.29167" stroke-miterlimit="8" stroke-dasharray="9.16667 6.875" fill="none" fill-rule="evenodd"/><path d="M2732 685 2732 1336.08" stroke="#4472C4" stroke-width="2.29167" stroke-miterlimit="8" stroke-dasharray="9.16667 6.875" fill="none" fill-rule="evenodd"/><path d="M3171 233 3171 1336.1" stroke="#4472C4" stroke-width="2.29167" stroke-miterlimit="8" stroke-dasharray="9.16667 6.875" fill="none" fill-rule="evenodd"/><path d="M1406 713 1406 1327.19" stroke="#4472C4" stroke-width="2.29167" stroke-miterlimit="8" stroke-dasharray="9.16667 6.875" fill="none" fill-rule="evenodd"/><text font-family="MS Gothic,MS Gothic_MSFontService,sans-serif" font-weight="400" font-size="83" transform="matrix(1 0 0 1 2870.86 1272)">mqtt</text><text font-family="MS Gothic,MS Gothic_MSFontService,sans-serif" font-weight="400" font-size="83" transform="matrix(1 0 0 1 2452.29 1272)">mqtts</text><text font-family="MS Gothic,MS Gothic_MSFontService,sans-serif" font-weight="400" font-size="83" transform="matrix(1 0 0 1 2005.32 1272)">wss</text><text font-family="MS Gothic,MS Gothic_MSFontService,sans-serif" font-weight="400" font-size="83" transform="matrix(1 0 0 1 1587.54 1272)">ws</text></g></svg>