<svg width="4334" height="1278" xmlns="http://www.w3.org/2000/svg" xmlns:xlink="http://www.w3.org/1999/xlink" xml:space="preserve" overflow="hidden"><g transform="translate(-48 -379)"><rect x="1380.5" y="388.5" width="358" height="133" stroke="#000000" stroke-width="3.4375" stroke-linejoin="round" stroke-miterlimit="10" fill="none"/><text font-family="MS Gothic,MS Gothic_MSFontService,sans-serif" font-weight="400" font-size="83" transform="matrix(1 0 0 1 1412.73 489)">client1</text><path d="M0 0 0.357283 1078.09" stroke="#000000" stroke-width="2.29167" stroke-miterlimit="8" fill="none" fill-rule="evenodd" transform="matrix(-1 0 0 1 1558.36 521)"/><rect x="2796.5" y="388.5" width="316" height="133" stroke="#000000" stroke-width="3.4375" stroke-linejoin="round" stroke-miterlimit="10" fill="none"/><text font-family="MS Gothic,MS Gothic_MSFontService,sans-serif" font-weight="400" font-size="83" transform="matrix(1 0 0 1 2828.76 489)">broker</text><path d="M2954 521 2954 1599.09" stroke="#000000" stroke-width="2.29167" stroke-miterlimit="8" fill="none" fill-rule="evenodd"/><path d="M1558 804.854 2951.19 804.855 2951.19 807.146 1558 807.146ZM2910.5 782.082 2953.55 806 2910.5 829.919C2909.95 830.226 2909.25 830.027 2908.94 829.474 2908.64 828.92 2908.83 828.223 2909.39 827.916L2950.64 804.999 2950.64 807.002 2909.39 784.085C2908.83 783.778 2908.64 783.081 2908.94 782.527 2909.25 781.974 2909.95 781.775 2910.5 782.082Z"/><text font-family="MS Gothic,MS Gothic_MSFontService,sans-serif" font-weight="400" font-size="83" transform="matrix(1 0 0 1 1607.18 785)">CONNECT MaximumPacketSize:10000</text><path d="M2.96314e-07-1.14583 1393.19-1.14547 1393.19 1.14619-2.96314e-07 1.14583ZM1352.5-23.918 1395.55 0.000360765 1352.5 23.9187C1351.95 24.226 1351.25 24.0267 1350.94 23.4735 1350.64 22.9203 1350.83 22.2227 1351.39 21.9154L1392.64-1.00128 1392.64 1.002 1351.39-21.9147C1350.83-22.222 1350.64-22.9196 1350.94-23.4728 1351.25-24.026 1351.95-24.2253 1352.5-23.918Z" transform="matrix(-1 0 0 1 2953.55 1459)"/><text font-family="MS Gothic,MS Gothic_MSFontService,sans-serif" font-weight="400" font-size="83" transform="matrix(1 0 0 1 1631.29 1438)">CONNACK MaximumPacketSize:20000</text><path d="M2985.5 859.5 4373.5 859.5 4373.5 1002.83 4344.83 1031.5 2985.5 1031.5Z" fill="#FFE699" fill-rule="evenodd"/><path d="M4344.83 1031.5 4350.57 1008.57 4373.5 1002.83Z" fill="#CDB97B" fill-rule="evenodd"/><path d="M4344.83 1031.5 4350.57 1008.57 4373.5 1002.83 4344.83 1031.5 2985.5 1031.5 2985.5 859.5 4373.5 859.5 4373.5 1002.83" stroke="#172C51" stroke-width="4.58333" stroke-miterlimit="8" fill="none" fill-rule="evenodd"/><text font-family="MS Gothic,MS Gothic_MSFontService,sans-serif" font-weight="400" font-size="64" transform="matrix(1 0 0 1 3149.22 920)">broker can send up to 10000 bytes </text><text font-family="MS Gothic,MS Gothic_MSFontService,sans-serif" font-weight="400" font-size="64" transform="matrix(1 0 0 1 3405.88 991)">packet to client1</text><path d="M50.5 1476.5 1548.5 1476.5 1548.5 1619.83 1519.83 1648.5 50.5 1648.5Z" fill="#FFE699" fill-rule="evenodd"/><path d="M1519.83 1648.5 1525.57 1625.57 1548.5 1619.83Z" fill="#CDB97B" fill-rule="evenodd"/><path d="M1519.83 1648.5 1525.57 1625.57 1548.5 1619.83 1519.83 1648.5 50.5 1648.5 50.5 1476.5 1548.5 1476.5 1548.5 1619.83" stroke="#172C51" stroke-width="4.58333" stroke-miterlimit="8" fill="none" fill-rule="evenodd"/><text font-family="MS Gothic,MS Gothic_MSFontService,sans-serif" font-weight="400" font-size="64" transform="matrix(1 0 0 1 253.382 1536)">client1 can send up to 20000 bytes </text><text font-family="MS Gothic,MS Gothic_MSFontService,sans-serif" font-weight="400" font-size="64" transform="matrix(1 0 0 1 477.965 1607)">packet to the broker</text></g></svg>