<svg width="4223" height="1380" xmlns="http://www.w3.org/2000/svg" xmlns:xlink="http://www.w3.org/1999/xlink" xml:space="preserve" overflow="hidden"><g transform="translate(-8 -379)"><rect x="25.4999" y="388.5" width="358" height="133" stroke="#000000" stroke-width="3.4375" stroke-linejoin="round" stroke-miterlimit="10" fill="none"/><text font-family="MS Gothic,MS Gothic_MSFontService,sans-serif" font-weight="400" font-size="83" transform="matrix(1 0 0 1 58.2083 489)">client1</text><path d="M204 521 204 1757.67" stroke="#000000" stroke-width="2.29167" stroke-miterlimit="8" fill="none" fill-rule="evenodd"/><rect x="3432.5" y="388.5" width="358" height="133" stroke="#000000" stroke-width="3.4375" stroke-linejoin="round" stroke-miterlimit="10" fill="none"/><text font-family="MS Gothic,MS Gothic_MSFontService,sans-serif" font-weight="400" font-size="83" transform="matrix(1 0 0 1 3464.95 489)">Client2</text><path d="M3611 521 3611 1757.67" stroke="#000000" stroke-width="2.29167" stroke-miterlimit="8" fill="none" fill-rule="evenodd"/><rect x="3859.5" y="388.5" width="358" height="133" stroke="#000000" stroke-width="3.4375" stroke-linejoin="round" stroke-miterlimit="10" fill="none"/><text font-family="MS Gothic,MS Gothic_MSFontService,sans-serif" font-weight="400" font-size="83" transform="matrix(1 0 0 1 3892.12 489)">client3</text><path d="M4038 521 4038 1757.67" stroke="#000000" stroke-width="2.29167" stroke-miterlimit="8" fill="none" fill-rule="evenodd"/><path d="M204 848.854 3608.76 848.855 3608.76 851.146 204 851.146ZM3568.04 826.082 3611.1 850 3568.04 873.919C3567.49 874.226 3566.79 874.027 3566.48 873.474 3566.18 872.92 3566.38 872.223 3566.93 871.916L3608.18 848.999 3608.18 851.002 3566.93 828.085C3566.38 827.778 3566.18 827.081 3566.48 826.527 3566.79 825.974 3567.49 825.775 3568.04 826.082Z"/><text font-family="MS Gothic,MS Gothic_MSFontService,sans-serif" font-weight="400" font-size="73" transform="matrix(1 0 0 1 266.701 805)">PUBLISH TopicName:T2, ResponseTopic:</text><text fill="#0000FF" font-family="MS Gothic,MS Gothic_MSFontService,sans-serif" font-weight="400" font-size="73" transform="matrix(1 0 0 1 1586.7 805)">R1</text><text font-family="MS Gothic,MS Gothic_MSFontService,sans-serif" font-weight="400" font-size="73" transform="matrix(1 0 0 1 1660.03 805)">, CorrelationData:</text><text fill="#C55A11" font-family="MS Gothic,MS Gothic_MSFontService,sans-serif" font-weight="400" font-size="73" transform="matrix(1 0 0 1 2320.03 805)">UnpredictableString2</text><text font-family="MS Gothic,MS Gothic_MSFontService,sans-serif" font-weight="400" font-size="73" transform="matrix(1 0 0 1 3053.37 805)">, </text><text font-family="MS Gothic,MS Gothic_MSFontService,sans-serif" font-weight="400" font-size="73" transform="matrix(1 0 0 1 3126.7 805)">Payload:ON</text><path d="M1.21421e-07-1.14583 3403.36-1.14547 3403.36 1.14619-1.21421e-07 1.14583ZM3362.65-23.9179 3405.7 0.000360843 3362.65 23.9187C3362.09 24.226 3361.4 24.0267 3361.09 23.4735 3360.78 22.9203 3360.98 22.2227 3361.53 21.9154L3402.78-1.00128 3402.78 1.002 3361.53-21.9147C3360.98-22.222 3360.78-22.9196 3361.09-23.4728 3361.4-24.026 3362.09-24.2253 3362.65-23.9179Z" transform="matrix(-1 0 0 1 3609.7 1335)"/><rect x="1461.5" y="388.5" width="1358" height="133" stroke="#000000" stroke-width="3.4375" stroke-linejoin="round" stroke-miterlimit="10" stroke-dasharray="13.75 10.3125" fill="none"/><text font-family="MS Gothic,MS Gothic_MSFontService,sans-serif" font-weight="400" font-size="83" transform="matrix(1 0 0 1 1494.35 489)">broker(omitted in this diagram)</text><path d="M204 1091.85 4035.93 1091.85 4035.93 1094.15 204 1094.15ZM3995.21 1069.08 4038.27 1093 3995.21 1116.92C3994.66 1117.23 3993.96 1117.03 3993.65 1116.47 3993.35 1115.92 3993.55 1115.22 3994.1 1114.92L4035.35 1092 4035.35 1094 3994.1 1071.09C3993.55 1070.78 3993.35 1070.08 3993.65 1069.53 3993.96 1068.97 3994.66 1068.77 3995.21 1069.08Z"/><text font-family="MS Gothic,MS Gothic_MSFontService,sans-serif" font-weight="400" font-size="73" transform="matrix(1 0 0 1 266.701 1049)">PUBLISH TopicName:T3, ResponseTopic:</text><text fill="#0000FF" font-family="MS Gothic,MS Gothic_MSFontService,sans-serif" font-weight="400" font-size="73" transform="matrix(1 0 0 1 1586.7 1049)">R1</text><text font-family="MS Gothic,MS Gothic_MSFontService,sans-serif" font-weight="400" font-size="73" transform="matrix(1 0 0 1 1660.03 1049)">, CorrelationData:</text><text fill="#548235" font-family="MS Gothic,MS Gothic_MSFontService,sans-serif" font-weight="400" font-size="73" transform="matrix(1 0 0 1 2320.03 1049)">UnpredictableString3</text><text font-family="MS Gothic,MS Gothic_MSFontService,sans-serif" font-weight="400" font-size="73" transform="matrix(1 0 0 1 3053.37 1049)">, </text><text font-family="MS Gothic,MS Gothic_MSFontService,sans-serif" font-weight="400" font-size="73" transform="matrix(1 0 0 1 3126.7 1049)">Payload:ON</text><text font-family="MS Gothic,MS Gothic_MSFontService,sans-serif" font-weight="400" font-size="73" transform="matrix(1 0 0 1 266.701 1285)">PUBLISH TopicName:</text><text fill="#0000FF" font-family="MS Gothic,MS Gothic_MSFontService,sans-serif" font-weight="400" font-size="73" transform="matrix(1 0 0 1 926.701 1285)">R1</text><text font-family="MS Gothic,MS Gothic_MSFontService,sans-serif" font-weight="400" font-size="73" transform="matrix(1 0 0 1 1000.03 1285)">, CorrelationData:</text><text fill="#C55A11" font-family="MS Gothic,MS Gothic_MSFontService,sans-serif" font-weight="400" font-size="73" transform="matrix(1 0 0 1 1660.03 1285)">UnpredictableString2</text><text font-family="MS Gothic,MS Gothic_MSFontService,sans-serif" font-weight="400" font-size="73" transform="matrix(1 0 0 1 2393.37 1285)">, </text><text font-family="MS Gothic,MS Gothic_MSFontService,sans-serif" font-weight="400" font-size="73" transform="matrix(1 0 0 1 2466.7 1285)">Payload:Failed</text><path d="M1.07849e-07-1.14583 3831.93-1.14547 3831.93 1.14619-1.07849e-07 1.14583ZM3791.21-23.9179 3834.27 0.000365255 3791.21 23.9187C3790.66 24.226 3789.96 24.0267 3789.65 23.4735 3789.35 22.9203 3789.55 22.2227 3790.1 21.9154L3831.35-1.00128 3831.35 1.002 3790.1-21.9147C3789.55-22.222 3789.35-22.9196 3789.65-23.4728 3789.96-24.026 3790.66-24.2253 3791.21-23.9179Z" transform="matrix(-1 0 0 1 4038.27 1594)"/><text font-family="MS Gothic,MS Gothic_MSFontService,sans-serif" font-weight="400" font-size="73" transform="matrix(1 0 0 1 266.701 1543)">PUBLISH TopicName:</text><text fill="#0000FF" font-family="MS Gothic,MS Gothic_MSFontService,sans-serif" font-weight="400" font-size="73" transform="matrix(1 0 0 1 926.701 1543)">R1</text><text font-family="MS Gothic,MS Gothic_MSFontService,sans-serif" font-weight="400" font-size="73" transform="matrix(1 0 0 1 1000.03 1543)">, CorrelationData:</text><text fill="#548235" font-family="MS Gothic,MS Gothic_MSFontService,sans-serif" font-weight="400" font-size="73" transform="matrix(1 0 0 1 1660.03 1543)">UnpredictableString3</text><text font-family="MS Gothic,MS Gothic_MSFontService,sans-serif" font-weight="400" font-size="73" transform="matrix(1 0 0 1 2393.37 1543)">, </text><text font-family="MS Gothic,MS Gothic_MSFontService,sans-serif" font-weight="400" font-size="73" transform="matrix(1 0 0 1 2466.7 1543)">Payload:Success</text></g></svg>