<svg width="3281" height="2034" xmlns="http://www.w3.org/2000/svg" xmlns:xlink="http://www.w3.org/1999/xlink" xml:space="preserve" overflow="hidden"><g transform="translate(-1007 -142)"><rect x="1024.5" y="388.5" width="359" height="133" stroke="#000000" stroke-width="3.4375" stroke-linejoin="round" stroke-miterlimit="10" fill="none"/><text font-family="MS Gothic,MS Gothic_MSFontService,sans-serif" font-weight="400" font-size="83" transform="matrix(1 0 0 1 1057.38 489)">client1</text><path d="M1203 521 1203 2087.21" stroke="#000000" stroke-width="2.29167" stroke-miterlimit="8" fill="none" fill-rule="evenodd"/><rect x="2962.5" y="388.5" width="317" height="133" stroke="#000000" stroke-width="3.4375" stroke-linejoin="round" stroke-miterlimit="10" fill="none"/><text font-family="MS Gothic,MS Gothic_MSFontService,sans-serif" font-weight="400" font-size="83" transform="matrix(1 0 0 1 2995.16 489)">broker</text><path d="M3120 521 3120 2087.21" stroke="#000000" stroke-width="2.29167" stroke-miterlimit="8" fill="none" fill-rule="evenodd"/><path d="M1203 804.854 3117.97 804.855 3117.97 807.146 1203 807.146ZM3077.26 782.082 3120.31 806 3077.26 829.919C3076.7 830.226 3076.01 830.027 3075.7 829.474 3075.39 828.92 3075.59 828.223 3076.15 827.916L3117.4 804.999 3117.4 807.002 3076.15 784.085C3075.59 783.778 3075.39 783.081 3075.7 782.527 3076.01 781.974 3076.7 781.775 3077.26 782.082Z"/><text font-family="MS Gothic,MS Gothic_MSFontService,sans-serif" font-weight="400" font-size="83" transform="matrix(1 0 0 1 1318.4 785)">PUBLISH </text><text font-family="MS Gothic,MS Gothic_MSFontService,sans-serif" font-weight="400" font-size="83" transform="matrix(1 0 0 1 1648.4 785)">TopicName</text><text font-family="MS Gothic,MS Gothic_MSFontService,sans-serif" font-weight="400" font-size="83" transform="matrix(1 0 0 1 2019.65 785)">:</text><text font-family="MS Gothic,MS Gothic_MSFontService,sans-serif" font-weight="400" font-size="83" transform="matrix(1 0 0 1 2102.15 785)">"topic1", </text><text font-family="MS Gothic,MS Gothic_MSFontService,sans-serif" font-weight="400" font-size="83" transform="matrix(1 0 0 1 2514.65 785)">TopicAlias</text><text font-family="MS Gothic,MS Gothic_MSFontService,sans-serif" font-weight="400" font-size="83" transform="matrix(1 0 0 1 2927.15 785)">:</text><text font-family="MS Gothic,MS Gothic_MSFontService,sans-serif" font-weight="400" font-size="83" transform="matrix(1 0 0 1 3009.65 785)">1</text><path d="M1342.5 554.5 1801.5 554.5 1801.5 659.5 1780.5 680.5 1342.5 680.5Z" fill="#FFE699" fill-rule="evenodd"/><path d="M1780.5 680.5 1784.7 663.7 1801.5 659.5Z" fill="#CDB97B" fill-rule="evenodd"/><path d="M1780.5 680.5 1784.7 663.7 1801.5 659.5 1780.5 680.5 1342.5 680.5 1342.5 554.5 1801.5 554.5 1801.5 659.5" stroke="#172C51" stroke-width="4.58333" stroke-miterlimit="8" fill="none" fill-rule="evenodd"/><text font-family="MS Gothic,MS Gothic_MSFontService,sans-serif" font-weight="400" font-size="64" transform="matrix(1 0 0 1 1443.12 628)">Register</text><path d="M3158.5 1185.5 4279.5 1185.5 4279.5 1328.83 4250.83 1357.5 3158.5 1357.5Z" fill="#FFE699" fill-rule="evenodd"/><path d="M4250.83 1357.5 4256.57 1334.57 4279.5 1328.83Z" fill="#CDB97B" fill-rule="evenodd"/><path d="M4250.83 1357.5 4256.57 1334.57 4279.5 1328.83 4250.83 1357.5 3158.5 1357.5 3158.5 1185.5 4279.5 1185.5 4279.5 1328.83" stroke="#172C51" stroke-width="4.58333" stroke-miterlimit="8" fill="none" fill-rule="evenodd"/><text font-family="MS Gothic,MS Gothic_MSFontService,sans-serif" font-weight="400" font-size="64" transform="matrix(1 0 0 1 3204.94 1278)">Extract topic1 from </text><text font-family="MS Gothic,MS Gothic_MSFontService,sans-serif" font-weight="400" font-size="64" transform="matrix(1 0 0 1 3846.61 1278)">TopicAlias</text><text font-family="MS Gothic,MS Gothic_MSFontService,sans-serif" font-weight="400" font-size="64" transform="matrix(1 0 0 1 4199.52 1278)">1</text><path d="M2169.5 151.5 3395.5 151.5 3395.5 328.166 3360.17 363.5 2169.5 363.5Z" fill="#FFE699" fill-rule="evenodd"/><path d="M3360.17 363.5 3367.23 335.232 3395.5 328.166Z" fill="#CDB97B" fill-rule="evenodd"/><path d="M3360.17 363.5 3367.23 335.232 3395.5 328.166 3360.17 363.5 2169.5 363.5 2169.5 151.5 3395.5 151.5 3395.5 328.166" stroke="#172C51" stroke-width="4.58333" stroke-miterlimit="8" fill="none" fill-rule="evenodd"/><text font-family="MS Gothic,MS Gothic_MSFontService,sans-serif" font-weight="400" font-size="64" transform="matrix(1 0 0 1 2316.83 228)">broker prepares 20 </text><text font-family="MS Gothic,MS Gothic_MSFontService,sans-serif" font-weight="400" font-size="64" transform="matrix(1 0 0 1 2926.42 228)">TopicAlias</text><text font-family="MS Gothic,MS Gothic_MSFontService,sans-serif" font-weight="400" font-size="64" transform="matrix(1 0 0 1 2220.58 299)">capacity to receive for each client</text><path d="M1203 1150.85 3117.97 1150.85 3117.97 1153.15 1203 1153.15ZM3077.26 1128.08 3120.31 1152 3077.26 1175.92C3076.7 1176.23 3076.01 1176.03 3075.7 1175.47 3075.39 1174.92 3075.59 1174.22 3076.15 1173.92L3117.4 1151 3117.4 1153 3076.15 1130.09C3075.59 1129.78 3075.39 1129.08 3075.7 1128.53 3076.01 1127.97 3076.7 1127.77 3077.26 1128.08Z"/><text font-family="MS Gothic,MS Gothic_MSFontService,sans-serif" font-weight="400" font-size="83" transform="matrix(1 0 0 1 1318.4 1131)">PUBLISH </text><text font-family="MS Gothic,MS Gothic_MSFontService,sans-serif" font-weight="400" font-size="83" transform="matrix(1 0 0 1 1648.4 1131)">TopicName</text><text font-family="MS Gothic,MS Gothic_MSFontService,sans-serif" font-weight="400" font-size="83" transform="matrix(1 0 0 1 2019.65 1131)">:</text><text font-family="MS Gothic,MS Gothic_MSFontService,sans-serif" font-weight="400" font-size="83" transform="matrix(1 0 0 1 2102.15 1131)">"", </text><text font-family="MS Gothic,MS Gothic_MSFontService,sans-serif" font-weight="400" font-size="83" transform="matrix(1 0 0 1 2267.15 1131)">TopicAlias</text><text font-family="MS Gothic,MS Gothic_MSFontService,sans-serif" font-weight="400" font-size="83" transform="matrix(1 0 0 1 2679.65 1131)">:</text><text font-family="MS Gothic,MS Gothic_MSFontService,sans-serif" font-weight="400" font-size="83" transform="matrix(1 0 0 1 2762.15 1131)">1</text><path d="M1342.5 900.5 1801.5 900.5 1801.5 1004.67 1780.67 1025.5 1342.5 1025.5Z" fill="#FFE699" fill-rule="evenodd"/><path d="M1780.67 1025.5 1784.83 1008.83 1801.5 1004.67Z" fill="#CDB97B" fill-rule="evenodd"/><path d="M1780.67 1025.5 1784.83 1008.83 1801.5 1004.67 1780.67 1025.5 1342.5 1025.5 1342.5 900.5 1801.5 900.5 1801.5 1004.67" stroke="#172C51" stroke-width="4.58333" stroke-miterlimit="8" fill="none" fill-rule="evenodd"/><text font-family="MS Gothic,MS Gothic_MSFontService,sans-serif" font-weight="400" font-size="64" transform="matrix(1 0 0 1 1523.33 973)">Use</text><path d="M1203 1607.85 3117.97 1607.85 3117.97 1610.15 1203 1610.15ZM3077.26 1585.08 3120.31 1609 3077.26 1632.92C3076.7 1633.23 3076.01 1633.03 3075.7 1632.47 3075.39 1631.92 3075.59 1631.22 3076.15 1630.92L3117.4 1608 3117.4 1610 3076.15 1587.09C3075.59 1586.78 3075.39 1586.08 3075.7 1585.53 3076.01 1584.97 3076.7 1584.77 3077.26 1585.08Z"/><text font-family="MS Gothic,MS Gothic_MSFontService,sans-serif" font-weight="400" font-size="83" transform="matrix(1 0 0 1 1318.4 1588)">PUBLISH </text><text font-family="MS Gothic,MS Gothic_MSFontService,sans-serif" font-weight="400" font-size="83" transform="matrix(1 0 0 1 1648.4 1588)">TopicName</text><text font-family="MS Gothic,MS Gothic_MSFontService,sans-serif" font-weight="400" font-size="83" transform="matrix(1 0 0 1 2019.65 1588)">:</text><text font-family="MS Gothic,MS Gothic_MSFontService,sans-serif" font-weight="400" font-size="83" transform="matrix(1 0 0 1 2102.15 1588)">"topic1", </text><text font-family="MS Gothic,MS Gothic_MSFontService,sans-serif" font-weight="400" font-size="83" transform="matrix(1 0 0 1 2514.65 1588)">TopicAlias</text><text font-family="MS Gothic,MS Gothic_MSFontService,sans-serif" font-weight="400" font-size="83" transform="matrix(1 0 0 1 2927.15 1588)">:</text><text font-family="MS Gothic,MS Gothic_MSFontService,sans-serif" font-weight="400" font-size="83" transform="matrix(1 0 0 1 3009.65 1588)">1</text><path d="M1342.5 1357.5 1801.5 1357.5 1801.5 1461.67 1780.67 1482.5 1342.5 1482.5Z" fill="#FFE699" fill-rule="evenodd"/><path d="M1780.67 1482.5 1784.83 1465.83 1801.5 1461.67Z" fill="#CDB97B" fill-rule="evenodd"/><path d="M1780.67 1482.5 1784.83 1465.83 1801.5 1461.67 1780.67 1482.5 1342.5 1482.5 1342.5 1357.5 1801.5 1357.5 1801.5 1461.67" stroke="#172C51" stroke-width="4.58333" stroke-miterlimit="8" fill="none" fill-rule="evenodd"/><text font-family="MS Gothic,MS Gothic_MSFontService,sans-serif" font-weight="400" font-size="64" transform="matrix(1 0 0 1 1443.12 1430)">Register</text><path d="M1203 1952.85 3117.97 1952.85 3117.97 1955.15 1203 1955.15ZM3077.26 1930.08 3120.31 1954 3077.26 1977.92C3076.7 1978.23 3076.01 1978.03 3075.7 1977.47 3075.39 1976.92 3075.59 1976.22 3076.15 1975.92L3117.4 1953 3117.4 1955 3076.15 1932.09C3075.59 1931.78 3075.39 1931.08 3075.7 1930.53 3076.01 1929.97 3076.7 1929.77 3077.26 1930.08Z"/><text font-family="MS Gothic,MS Gothic_MSFontService,sans-serif" font-weight="400" font-size="83" transform="matrix(1 0 0 1 1318.4 1933)">PUBLISH </text><text font-family="MS Gothic,MS Gothic_MSFontService,sans-serif" font-weight="400" font-size="83" transform="matrix(1 0 0 1 1648.4 1933)">TopicName</text><text font-family="MS Gothic,MS Gothic_MSFontService,sans-serif" font-weight="400" font-size="83" transform="matrix(1 0 0 1 2019.65 1933)">:</text><text font-family="MS Gothic,MS Gothic_MSFontService,sans-serif" font-weight="400" font-size="83" transform="matrix(1 0 0 1 2102.15 1933)">"", </text><text font-family="MS Gothic,MS Gothic_MSFontService,sans-serif" font-weight="400" font-size="83" transform="matrix(1 0 0 1 2267.15 1933)">TopicAlias</text><text font-family="MS Gothic,MS Gothic_MSFontService,sans-serif" font-weight="400" font-size="83" transform="matrix(1 0 0 1 2679.65 1933)">:</text><text font-family="MS Gothic,MS Gothic_MSFontService,sans-serif" font-weight="400" font-size="83" transform="matrix(1 0 0 1 2762.15 1933)">1</text><path d="M1342.5 1702.5 1801.5 1702.5 1801.5 1806.67 1780.67 1827.5 1342.5 1827.5Z" fill="#FFE699" fill-rule="evenodd"/><path d="M1780.67 1827.5 1784.83 1810.83 1801.5 1806.67Z" fill="#CDB97B" fill-rule="evenodd"/><path d="M1780.67 1827.5 1784.83 1810.83 1801.5 1806.67 1780.67 1827.5 1342.5 1827.5 1342.5 1702.5 1801.5 1702.5 1801.5 1806.67" stroke="#172C51" stroke-width="4.58333" stroke-miterlimit="8" fill="none" fill-rule="evenodd"/><text font-family="MS Gothic,MS Gothic_MSFontService,sans-serif" font-weight="400" font-size="64" transform="matrix(1 0 0 1 1523.33 1776)">Use</text><path d="M3158.5 2001.5 4279.5 2001.5 4279.5 2144.83 4250.83 2173.5 3158.5 2173.5Z" fill="#FFE699" fill-rule="evenodd"/><path d="M4250.83 2173.5 4256.57 2150.57 4279.5 2144.83Z" fill="#CDB97B" fill-rule="evenodd"/><path d="M4250.83 2173.5 4256.57 2150.57 4279.5 2144.83 4250.83 2173.5 3158.5 2173.5 3158.5 2001.5 4279.5 2001.5 4279.5 2144.83" stroke="#172C51" stroke-width="4.58333" stroke-miterlimit="8" fill="none" fill-rule="evenodd"/><text font-family="MS Gothic,MS Gothic_MSFontService,sans-serif" font-weight="400" font-size="64" transform="matrix(1 0 0 1 3204.94 2094)">Extract topic2 from </text><text font-family="MS Gothic,MS Gothic_MSFontService,sans-serif" font-weight="400" font-size="64" transform="matrix(1 0 0 1 3846.61 2094)">TopicAlias</text><text font-family="MS Gothic,MS Gothic_MSFontService,sans-serif" font-weight="400" font-size="64" transform="matrix(1 0 0 1 4199.52 2094)">1</text></g></svg>